<svg width="19" height="19" viewBox="0 0 19 19" fill="none" xmlns="http://www.w3.org/2000/svg">
<path d="M1.78125 0C0.797852 0 0 1.0638 0 2.375C0 3.12214 0.263477 3.82474 0.7125 4.275L8.7875 12.35C9.21055 12.7706 9.78945 12.7706 10.2125 12.35L18.2875 4.275C18.7365 3.82474 19 3.12214 19 2.375C19 1.0638 18.2021 0 17.2187 0H1.78125ZM0 5.54167V15.8333C0 17.5799 1.06504 19 2.375 19H16.625C17.935 19 19 17.5799 19 15.8333V5.54167L10.925 13.6167C10.0789 14.4628 8.92109 14.4628 8.075 13.6167L0 5.54167Z" fill="white"/>
</svg>
