<svg width="19" height="19" viewBox="0 0 19 19" fill="none" xmlns="http://www.w3.org/2000/svg">
<g clip-path="url(#clip0_14_169)">
<path d="M9.49895 4.80955C6.80313 4.80955 4.62867 6.98449 4.62867 9.68091C4.62867 12.3773 6.80313 14.5523 9.49895 14.5523C12.1948 14.5523 14.3692 12.3773 14.3692 9.68091C14.3692 6.98449 12.1948 4.80955 9.49895 4.80955ZM9.49895 12.8479C7.75684 12.8479 6.33263 11.4276 6.33263 9.68091C6.33263 7.93417 7.7526 6.51389 9.49895 6.51389C11.2453 6.51389 12.6653 7.93417 12.6653 9.68091C12.6653 11.4276 11.2411 12.8479 9.49895 12.8479ZM15.7044 4.61028C15.7044 5.24199 15.1958 5.74651 14.5684 5.74651C13.9369 5.74651 13.4325 5.23775 13.4325 4.61028C13.4325 3.98282 13.9411 3.47406 14.5684 3.47406C15.1958 3.47406 15.7044 3.98282 15.7044 4.61028ZM18.9301 5.76347C18.858 4.24144 18.5104 2.89323 17.3957 1.78244C16.2851 0.671648 14.9372 0.323996 13.4155 0.247683C11.8472 0.15865 7.14646 0.15865 5.57814 0.247683C4.06069 0.319757 2.71278 0.667408 1.598 1.7782C0.483218 2.88899 0.139882 4.2372 0.0635858 5.75923C-0.025427 7.3279 -0.025427 12.0297 0.0635858 13.5983C0.135644 15.1204 0.483218 16.4686 1.598 17.5794C2.71278 18.6902 4.05645 19.0378 5.57814 19.1141C7.14646 19.2032 11.8472 19.2032 13.4155 19.1141C14.9372 19.0421 16.2851 18.6944 17.3957 17.5794C18.5062 16.4686 18.8538 15.1204 18.9301 13.5983C19.0191 12.0297 19.0191 7.33214 18.9301 5.76347ZM16.904 15.2815C16.5733 16.1125 15.9333 16.7526 15.0983 17.0876C13.8479 17.5836 10.8808 17.4691 9.49895 17.4691C8.11713 17.4691 5.14579 17.5794 3.89961 17.0876C3.06883 16.7569 2.42878 16.1167 2.09393 15.2815C1.598 14.0308 1.71244 11.063 1.71244 9.68091C1.71244 8.29878 1.60224 5.32679 2.09393 4.08033C2.42455 3.24936 3.06459 2.60917 3.89961 2.27424C5.15003 1.7782 8.11713 1.89267 9.49895 1.89267C10.8808 1.89267 13.8521 1.78244 15.0983 2.27424C15.9291 2.60493 16.5691 3.24512 16.904 4.08033C17.3999 5.33103 17.2854 8.29878 17.2854 9.68091C17.2854 11.063 17.3999 14.035 16.904 15.2815Z" fill="white"/>
</g>
<defs>
<clipPath id="clip0_14_169">
<rect width="19" height="19" fill="white"/>
</clipPath>
</defs>
</svg>
